<mxfile host="Electron" modified="2025-09-18T08:34:09.567Z" agent="Mozilla/5.0 (Windows NT 10.0; Win64; x64) AppleWebKit/537.36 (KHTML, like Gecko) draw.io/23.1.5 Chrome/120.0.6099.109 Electron/28.1.0 Safari/537.36" etag="O0nJQLKg6PkWJZPRB7Zy" version="23.1.5" type="device">
  <diagram name="Page-1" id="wUxpLoaL5nshn8n5NbQV">
    <mxGraphModel dx="1909" dy="1129" grid="1" gridSize="10" guides="1" tooltips="1" connect="1" arrows="1" fold="1" page="1" pageScale="1" pageWidth="850" pageHeight="1100" math="0" shadow="0">
      <root>
        <mxCell id="0" />
        <mxCell id="1" parent="0" />
        <mxCell id="FrakZTlxjL5uv5MNa6Mh-1" value="" style="ellipse;html=1;shape=startState;fillColor=#000000;strokeColor=#ff0000;" parent="1" vertex="1">
          <mxGeometry x="410" y="10" width="30" height="30" as="geometry" />
        </mxCell>
        <mxCell id="FrakZTlxjL5uv5MNa6Mh-2" value="" style="edgeStyle=orthogonalEdgeStyle;html=1;verticalAlign=bottom;endArrow=open;endSize=8;strokeColor=#ff0000;rounded=0;" parent="1" source="FrakZTlxjL5uv5MNa6Mh-1" target="FrakZTlxjL5uv5MNa6Mh-3" edge="1">
          <mxGeometry relative="1" as="geometry">
            <mxPoint x="425" y="140" as="targetPoint" />
          </mxGeometry>
        </mxCell>
        <mxCell id="FrakZTlxjL5uv5MNa6Mh-13" value="" style="edgeStyle=orthogonalEdgeStyle;rounded=0;orthogonalLoop=1;jettySize=auto;html=1;" parent="1" source="FrakZTlxjL5uv5MNa6Mh-3" target="lCdvNP-tb_NU-DIT1luH-9" edge="1">
          <mxGeometry relative="1" as="geometry">
            <mxPoint x="320" y="130" as="targetPoint" />
          </mxGeometry>
        </mxCell>
        <mxCell id="FrakZTlxjL5uv5MNa6Mh-3" value="Thực hiện duyệt sản phẩm" style="rounded=1;whiteSpace=wrap;html=1;arcSize=40;fontColor=#000000;fillColor=#ffffc0;strokeColor=#ff0000;" parent="1" vertex="1">
          <mxGeometry x="365" y="60" width="120" height="40" as="geometry" />
        </mxCell>
        <mxCell id="FrakZTlxjL5uv5MNa6Mh-7" value="" style="edgeStyle=orthogonalEdgeStyle;rounded=0;orthogonalLoop=1;jettySize=auto;html=1;entryX=0;entryY=0.5;entryDx=0;entryDy=0;exitX=0.5;exitY=1;exitDx=0;exitDy=0;" parent="1" source="FrakZTlxjL5uv5MNa6Mh-4" target="FrakZTlxjL5uv5MNa6Mh-15" edge="1">
          <mxGeometry relative="1" as="geometry" />
        </mxCell>
        <mxCell id="FrakZTlxjL5uv5MNa6Mh-4" value="Chọn mua các sản phẩm thông qua nút &quot;Mua hàng&quot;" style="whiteSpace=wrap;html=1;fillColor=#ffffc0;strokeColor=#ff0000;fontColor=#000000;rounded=1;arcSize=40;" parent="1" vertex="1">
          <mxGeometry x="365" y="290" width="120" height="60" as="geometry" />
        </mxCell>
        <mxCell id="FrakZTlxjL5uv5MNa6Mh-9" value="" style="edgeStyle=orthogonalEdgeStyle;rounded=0;orthogonalLoop=1;jettySize=auto;html=1;entryX=0;entryY=0.5;entryDx=0;entryDy=0;exitX=0.5;exitY=1;exitDx=0;exitDy=0;" parent="1" source="FrakZTlxjL5uv5MNa6Mh-6" target="FrakZTlxjL5uv5MNa6Mh-33" edge="1">
          <mxGeometry relative="1" as="geometry" />
        </mxCell>
        <mxCell id="FrakZTlxjL5uv5MNa6Mh-6" value="Xem giỏ hàng" style="whiteSpace=wrap;html=1;fillColor=#ffffc0;strokeColor=#ff0000;fontColor=#000000;rounded=1;arcSize=40;" parent="1" vertex="1">
          <mxGeometry x="365" y="540" width="120" height="60" as="geometry" />
        </mxCell>
        <mxCell id="FrakZTlxjL5uv5MNa6Mh-19" value="" style="edgeStyle=orthogonalEdgeStyle;rounded=0;orthogonalLoop=1;jettySize=auto;html=1;" parent="1" source="FrakZTlxjL5uv5MNa6Mh-8" target="FrakZTlxjL5uv5MNa6Mh-18" edge="1">
          <mxGeometry relative="1" as="geometry" />
        </mxCell>
        <mxCell id="FrakZTlxjL5uv5MNa6Mh-8" value="Chọn thanh toán giỏ hàng" style="whiteSpace=wrap;html=1;fillColor=#ffffc0;strokeColor=#ff0000;fontColor=#000000;rounded=1;arcSize=40;" parent="1" vertex="1">
          <mxGeometry x="365" y="680" width="120" height="60" as="geometry" />
        </mxCell>
        <mxCell id="FrakZTlxjL5uv5MNa6Mh-10" value="" style="rhombus;whiteSpace=wrap;html=1;fontColor=#000000;fillColor=#ffffc0;strokeColor=#ff0000;" parent="1" vertex="1">
          <mxGeometry x="385" y="200" width="80" height="40" as="geometry" />
        </mxCell>
        <mxCell id="FrakZTlxjL5uv5MNa6Mh-11" value="[Xem chi tiết sản phẩm]" style="edgeStyle=orthogonalEdgeStyle;html=1;align=left;verticalAlign=bottom;endArrow=open;endSize=8;strokeColor=#ff0000;rounded=0;" parent="1" source="FrakZTlxjL5uv5MNa6Mh-10" target="FrakZTlxjL5uv5MNa6Mh-14" edge="1">
          <mxGeometry x="-1" relative="1" as="geometry">
            <mxPoint x="610" y="200" as="targetPoint" />
          </mxGeometry>
        </mxCell>
        <mxCell id="FrakZTlxjL5uv5MNa6Mh-12" value="[Else]" style="edgeStyle=orthogonalEdgeStyle;html=1;align=left;verticalAlign=top;endArrow=open;endSize=8;strokeColor=#ff0000;rounded=0;" parent="1" source="FrakZTlxjL5uv5MNa6Mh-10" target="FrakZTlxjL5uv5MNa6Mh-4" edge="1">
          <mxGeometry x="-1" relative="1" as="geometry">
            <mxPoint x="420" y="280" as="targetPoint" />
          </mxGeometry>
        </mxCell>
        <mxCell id="FrakZTlxjL5uv5MNa6Mh-16" style="edgeStyle=orthogonalEdgeStyle;rounded=0;orthogonalLoop=1;jettySize=auto;html=1;exitX=0.5;exitY=1;exitDx=0;exitDy=0;entryX=1;entryY=0.5;entryDx=0;entryDy=0;" parent="1" source="FrakZTlxjL5uv5MNa6Mh-14" target="FrakZTlxjL5uv5MNa6Mh-15" edge="1">
          <mxGeometry relative="1" as="geometry" />
        </mxCell>
        <mxCell id="FrakZTlxjL5uv5MNa6Mh-14" value="Chọn mua sản phẩm thông qua nút &quot;Mua hàng&quot;" style="rounded=1;whiteSpace=wrap;html=1;arcSize=40;fontColor=#000000;fillColor=#ffffc0;strokeColor=#ff0000;" parent="1" vertex="1">
          <mxGeometry x="630" y="190" width="120" height="50" as="geometry" />
        </mxCell>
        <mxCell id="FrakZTlxjL5uv5MNa6Mh-17" style="edgeStyle=orthogonalEdgeStyle;rounded=0;orthogonalLoop=1;jettySize=auto;html=1;exitX=0.5;exitY=1;exitDx=0;exitDy=0;entryX=0.5;entryY=0;entryDx=0;entryDy=0;" parent="1" source="FrakZTlxjL5uv5MNa6Mh-15" target="lCdvNP-tb_NU-DIT1luH-4" edge="1">
          <mxGeometry relative="1" as="geometry">
            <mxPoint x="570" y="480" as="targetPoint" />
          </mxGeometry>
        </mxCell>
        <mxCell id="FrakZTlxjL5uv5MNa6Mh-15" value="" style="rhombus;whiteSpace=wrap;html=1;fontColor=#000000;fillColor=#ffffc0;strokeColor=#ff0000;" parent="1" vertex="1">
          <mxGeometry x="580" y="340" width="80" height="40" as="geometry" />
        </mxCell>
        <mxCell id="FrakZTlxjL5uv5MNa6Mh-23" value="" style="edgeStyle=orthogonalEdgeStyle;rounded=0;orthogonalLoop=1;jettySize=auto;html=1;" parent="1" source="FrakZTlxjL5uv5MNa6Mh-18" target="FrakZTlxjL5uv5MNa6Mh-20" edge="1">
          <mxGeometry relative="1" as="geometry" />
        </mxCell>
        <mxCell id="FrakZTlxjL5uv5MNa6Mh-18" value="Xác thực thông tin sản phẩm" style="whiteSpace=wrap;html=1;fillColor=#ffffc0;strokeColor=#ff0000;fontColor=#000000;rounded=1;arcSize=40;" parent="1" vertex="1">
          <mxGeometry x="365" y="760" width="120" height="60" as="geometry" />
        </mxCell>
        <mxCell id="FrakZTlxjL5uv5MNa6Mh-20" value="" style="rhombus;whiteSpace=wrap;html=1;fontColor=#000000;fillColor=#ffffc0;strokeColor=#ff0000;" parent="1" vertex="1">
          <mxGeometry x="550" y="770" width="80" height="40" as="geometry" />
        </mxCell>
        <mxCell id="FrakZTlxjL5uv5MNa6Mh-21" value="[Có lỗi]" style="edgeStyle=orthogonalEdgeStyle;html=1;align=left;verticalAlign=bottom;endArrow=open;endSize=8;strokeColor=#ff0000;rounded=0;" parent="1" source="FrakZTlxjL5uv5MNa6Mh-20" target="FrakZTlxjL5uv5MNa6Mh-28" edge="1">
          <mxGeometry x="-1" relative="1" as="geometry">
            <mxPoint x="700" y="790" as="targetPoint" />
          </mxGeometry>
        </mxCell>
        <mxCell id="FrakZTlxjL5uv5MNa6Mh-22" value="[Không có lỗi]" style="edgeStyle=orthogonalEdgeStyle;html=1;align=left;verticalAlign=top;endArrow=open;endSize=8;strokeColor=#ff0000;rounded=0;entryX=1;entryY=0.5;entryDx=0;entryDy=0;exitX=0.5;exitY=1;exitDx=0;exitDy=0;" parent="1" source="FrakZTlxjL5uv5MNa6Mh-20" target="FrakZTlxjL5uv5MNa6Mh-26" edge="1">
          <mxGeometry x="-1" relative="1" as="geometry">
            <mxPoint x="560" y="870" as="targetPoint" />
          </mxGeometry>
        </mxCell>
        <mxCell id="FrakZTlxjL5uv5MNa6Mh-30" value="" style="edgeStyle=orthogonalEdgeStyle;rounded=0;orthogonalLoop=1;jettySize=auto;html=1;" parent="1" source="FrakZTlxjL5uv5MNa6Mh-26" target="FrakZTlxjL5uv5MNa6Mh-29" edge="1">
          <mxGeometry relative="1" as="geometry" />
        </mxCell>
        <mxCell id="FrakZTlxjL5uv5MNa6Mh-26" value="Xử lý thanh toán" style="whiteSpace=wrap;html=1;fillColor=#ffffc0;strokeColor=#ff0000;fontColor=#000000;rounded=1;arcSize=40;" parent="1" vertex="1">
          <mxGeometry x="365" y="860" width="120" height="60" as="geometry" />
        </mxCell>
        <mxCell id="FrakZTlxjL5uv5MNa6Mh-32" value="" style="edgeStyle=orthogonalEdgeStyle;rounded=0;orthogonalLoop=1;jettySize=auto;html=1;" parent="1" source="FrakZTlxjL5uv5MNa6Mh-28" target="FrakZTlxjL5uv5MNa6Mh-31" edge="1">
          <mxGeometry relative="1" as="geometry" />
        </mxCell>
        <mxCell id="FrakZTlxjL5uv5MNa6Mh-28" value="Hiển thị lỗi tương ứng" style="rounded=1;whiteSpace=wrap;html=1;arcSize=40;fontColor=#000000;fillColor=#ffffc0;strokeColor=#ff0000;" parent="1" vertex="1">
          <mxGeometry x="710" y="770" width="120" height="40" as="geometry" />
        </mxCell>
        <mxCell id="FrakZTlxjL5uv5MNa6Mh-37" value="" style="edgeStyle=orthogonalEdgeStyle;rounded=0;orthogonalLoop=1;jettySize=auto;html=1;" parent="1" source="FrakZTlxjL5uv5MNa6Mh-29" target="FrakZTlxjL5uv5MNa6Mh-36" edge="1">
          <mxGeometry relative="1" as="geometry" />
        </mxCell>
        <mxCell id="FrakZTlxjL5uv5MNa6Mh-29" value="Gửi email cho người mua" style="whiteSpace=wrap;html=1;fillColor=#ffffc0;strokeColor=#ff0000;fontColor=#000000;rounded=1;arcSize=40;" parent="1" vertex="1">
          <mxGeometry x="365" y="970" width="120" height="60" as="geometry" />
        </mxCell>
        <mxCell id="FrakZTlxjL5uv5MNa6Mh-34" style="edgeStyle=orthogonalEdgeStyle;rounded=0;orthogonalLoop=1;jettySize=auto;html=1;exitX=1;exitY=0.5;exitDx=0;exitDy=0;entryX=1;entryY=0.5;entryDx=0;entryDy=0;" parent="1" source="FrakZTlxjL5uv5MNa6Mh-31" target="FrakZTlxjL5uv5MNa6Mh-33" edge="1">
          <mxGeometry relative="1" as="geometry" />
        </mxCell>
        <mxCell id="FrakZTlxjL5uv5MNa6Mh-31" value="Xóa các sản phẩm gây ra lỗi" style="whiteSpace=wrap;html=1;fillColor=#ffffc0;strokeColor=#ff0000;fontColor=#000000;rounded=1;arcSize=40;" parent="1" vertex="1">
          <mxGeometry x="710" y="860" width="120" height="60" as="geometry" />
        </mxCell>
        <mxCell id="FrakZTlxjL5uv5MNa6Mh-35" style="edgeStyle=orthogonalEdgeStyle;rounded=0;orthogonalLoop=1;jettySize=auto;html=1;exitX=0.5;exitY=1;exitDx=0;exitDy=0;entryX=1;entryY=0.5;entryDx=0;entryDy=0;" parent="1" source="FrakZTlxjL5uv5MNa6Mh-33" target="FrakZTlxjL5uv5MNa6Mh-8" edge="1">
          <mxGeometry relative="1" as="geometry" />
        </mxCell>
        <mxCell id="FrakZTlxjL5uv5MNa6Mh-33" value="" style="rhombus;whiteSpace=wrap;html=1;fontColor=#000000;fillColor=#ffffc0;strokeColor=#ff0000;" parent="1" vertex="1">
          <mxGeometry x="500" y="620" width="80" height="40" as="geometry" />
        </mxCell>
        <mxCell id="FrakZTlxjL5uv5MNa6Mh-36" value="" style="ellipse;html=1;shape=endState;fillColor=#000000;strokeColor=#ff0000;" parent="1" vertex="1">
          <mxGeometry x="410" y="1060" width="30" height="30" as="geometry" />
        </mxCell>
        <mxCell id="lCdvNP-tb_NU-DIT1luH-2" style="edgeStyle=orthogonalEdgeStyle;rounded=0;orthogonalLoop=1;jettySize=auto;html=1;exitX=0;exitY=0.5;exitDx=0;exitDy=0;" edge="1" parent="1" source="lCdvNP-tb_NU-DIT1luH-1" target="FrakZTlxjL5uv5MNa6Mh-6">
          <mxGeometry relative="1" as="geometry" />
        </mxCell>
        <mxCell id="lCdvNP-tb_NU-DIT1luH-1" value="Cập nhật lại giỏ hàng" style="whiteSpace=wrap;html=1;fillColor=#ffffc0;strokeColor=#ff0000;fontColor=#000000;rounded=1;arcSize=40;" vertex="1" parent="1">
          <mxGeometry x="550" y="540" width="120" height="60" as="geometry" />
        </mxCell>
        <mxCell id="lCdvNP-tb_NU-DIT1luH-4" value="" style="rhombus;whiteSpace=wrap;html=1;fontColor=#000000;fillColor=#ffffc0;strokeColor=#ff0000;" vertex="1" parent="1">
          <mxGeometry x="640" y="430" width="80" height="40" as="geometry" />
        </mxCell>
        <mxCell id="lCdvNP-tb_NU-DIT1luH-5" value="[Sản phẩm đã &lt;br&gt;có tron giỏ hàng]" style="edgeStyle=orthogonalEdgeStyle;html=1;align=left;verticalAlign=bottom;endArrow=open;endSize=8;strokeColor=#ff0000;rounded=0;" edge="1" source="lCdvNP-tb_NU-DIT1luH-4" parent="1" target="lCdvNP-tb_NU-DIT1luH-7">
          <mxGeometry x="-1" relative="1" as="geometry">
            <mxPoint x="820" y="450" as="targetPoint" />
          </mxGeometry>
        </mxCell>
        <mxCell id="lCdvNP-tb_NU-DIT1luH-6" value="[else]" style="edgeStyle=orthogonalEdgeStyle;html=1;align=left;verticalAlign=top;endArrow=open;endSize=8;strokeColor=#ff0000;rounded=0;" edge="1" source="lCdvNP-tb_NU-DIT1luH-4" parent="1" target="lCdvNP-tb_NU-DIT1luH-1">
          <mxGeometry x="-1" relative="1" as="geometry">
            <mxPoint x="680" y="530" as="targetPoint" />
          </mxGeometry>
        </mxCell>
        <mxCell id="lCdvNP-tb_NU-DIT1luH-8" style="edgeStyle=orthogonalEdgeStyle;rounded=0;orthogonalLoop=1;jettySize=auto;html=1;exitX=0.5;exitY=0;exitDx=0;exitDy=0;entryX=1;entryY=0.5;entryDx=0;entryDy=0;" edge="1" parent="1" source="lCdvNP-tb_NU-DIT1luH-7" target="lCdvNP-tb_NU-DIT1luH-9">
          <mxGeometry relative="1" as="geometry">
            <mxPoint x="830" y="110" as="targetPoint" />
          </mxGeometry>
        </mxCell>
        <mxCell id="lCdvNP-tb_NU-DIT1luH-7" value="Thông báo sản phẩm đã có trong giỏ hàng" style="rounded=1;whiteSpace=wrap;html=1;arcSize=40;fontColor=#000000;fillColor=#ffffc0;strokeColor=#ff0000;" vertex="1" parent="1">
          <mxGeometry x="830" y="430" width="120" height="40" as="geometry" />
        </mxCell>
        <mxCell id="lCdvNP-tb_NU-DIT1luH-10" value="" style="edgeStyle=orthogonalEdgeStyle;rounded=0;orthogonalLoop=1;jettySize=auto;html=1;" edge="1" parent="1" source="lCdvNP-tb_NU-DIT1luH-9" target="FrakZTlxjL5uv5MNa6Mh-10">
          <mxGeometry relative="1" as="geometry" />
        </mxCell>
        <mxCell id="lCdvNP-tb_NU-DIT1luH-9" value="" style="rhombus;whiteSpace=wrap;html=1;fontColor=#000000;fillColor=#ffffc0;strokeColor=#ff0000;" vertex="1" parent="1">
          <mxGeometry x="385" y="130" width="80" height="40" as="geometry" />
        </mxCell>
      </root>
    </mxGraphModel>
  </diagram>
</mxfile>
